#N canvas 9 45 586 369 10;
#X obj 334 22 inlet~;
#X obj 334 305 outlet~;
#X obj 334 263 *~;
#X obj 306 22 inlet~;
#X obj 306 305 outlet~;
#X obj 306 263 *~;
#X obj 278 22 inlet~;
#X obj 278 305 outlet~;
#X obj 278 263 *~;
#X obj 250 22 inlet~;
#X obj 250 305 outlet~;
#X obj 250 263 *~;
#X text 393 22 gain ctrl;
#X obj 377 22 inlet~;
#X obj 377 106 route list int float curve;
#N canvas 30 70 322 341 convert 0;
#X msg 130 91 4;
#X obj 130 70 sel 0;
#X obj 130 28 loadbang;
#X msg 130 49 \$2;
#X obj 26 212 pack 0 20;
#X obj 26 191 expr pow($f1/127\, 4 );
#X obj 188 107 maximum 0.001;
#X obj 188 22 inlet~;
#X text 202 181 convert midi values to linear amplitude;
#X obj 52 22 inlet~;
#X text 120 151 avoid clicks;
#X obj 26 170 maximum 0;
#X obj 26 107 t l l;
#X obj 88 128 zl len;
#X obj 26 233 zl group;
#X obj 26 128 zl iter 2;
#X obj 106 170 maximum 20;
#X obj 26 149 unpack 0 20;
#X text 70 34 avoid clicks;
#X obj 26 282 outlet~;
#X obj 26 22 inlet~;
#X msg 52 64 \$1 20;
#X text 195 93 curve exponent;
#X connect 0 0 6 0;
#X connect 1 0 0 0;
#X connect 1 1 6 0;
#X connect 2 0 3 0;
#X connect 3 0 1 0;
#X connect 4 0 14 0;
#X connect 5 0 4 0;
#X connect 7 0 6 0;
#X connect 9 0 21 0;
#X connect 11 0 5 0;
#X connect 12 0 15 0;
#X connect 12 1 13 0;
#X connect 13 0 14 1;
#X connect 14 0 19 0;
#X connect 15 0 17 0;
#X connect 16 0 4 1;
#X connect 17 0 11 0;
#X connect 17 1 16 0;
#X connect 20 0 12 0;
#X connect 21 0 12 0;
#X restore 377 152 pd convert;
#N canvas 178 234 341 307 remote 0;
#X msg 49 184 0-none;
#X text 93 135 local control;
#X obj 158 22 loadbang;
#X text 12 250 allows the use of data within other modules;
#X obj 26 22 inlet~;
#X obj 26 231 outlet~;
#X msg 158 64 \$1;
#X msg 158 133 \$0-none;
#X obj 158 85 sel 0 none;
#X obj 158 166 prepend set;
#X obj 158 187 receive;
#X text 165 50 optional remote control;
#X connect 2 0 6 0;
#X connect 4 0 5 0;
#X connect 6 0 8 0;
#X connect 7 0 9 0;
#X connect 8 0 7 0;
#X connect 8 1 7 0;
#X connect 8 2 9 0;
#X connect 9 0 0 0;
#X connect 10 0 5 0;
#X restore 377 64 pd remote;
#X text 384 50 optional remote control;
#X obj 377 195 line~ 1;
#X obj 222 22 inlet~;
#X obj 222 305 outlet~;
#X obj 222 263 *~;
#X obj 194 22 inlet~;
#X obj 194 305 outlet~;
#X obj 194 263 *~;
#X obj 166 22 inlet~;
#X obj 166 305 outlet~;
#X obj 166 263 *~;
#X obj 138 22 inlet~;
#X obj 138 305 outlet~;
#X obj 138 263 *~;
#X obj 110 22 inlet~;
#X obj 110 305 outlet~;
#X obj 110 263 *~;
#X obj 82 22 inlet~;
#X obj 82 305 outlet~;
#X obj 82 263 *~;
#X obj 54 22 inlet~;
#X obj 54 305 outlet~;
#X obj 54 263 *~;
#X obj 26 22 inlet~;
#X obj 26 305 outlet~;
#X obj 26 263 *~;
#X text 4 22 sig;
#X connect 0 0 2 0;
#X connect 2 0 1 0;
#X connect 3 0 5 0;
#X connect 5 0 4 0;
#X connect 6 0 8 0;
#X connect 8 0 7 0;
#X connect 9 0 11 0;
#X connect 11 0 10 0;
#X connect 13 0 16 0;
#X connect 14 0 15 0;
#X connect 14 1 15 1;
#X connect 14 2 15 1;
#X connect 14 3 15 2;
#X connect 14 4 18 0;
#X connect 15 0 18 0;
#X connect 16 0 14 0;
#X connect 18 0 42 1;
#X connect 18 0 39 1;
#X connect 18 0 36 1;
#X connect 18 0 33 1;
#X connect 18 0 30 1;
#X connect 18 0 27 1;
#X connect 18 0 24 1;
#X connect 18 0 21 1;
#X connect 18 0 11 1;
#X connect 18 0 8 1;
#X connect 18 0 5 1;
#X connect 18 0 2 1;
#X connect 19 0 21 0;
#X connect 21 0 20 0;
#X connect 22 0 24 0;
#X connect 24 0 23 0;
#X connect 25 0 27 0;
#X connect 27 0 26 0;
#X connect 28 0 30 0;
#X connect 30 0 29 0;
#X connect 31 0 33 0;
#X connect 33 0 32 0;
#X connect 34 0 36 0;
#X connect 36 0 35 0;
#X connect 37 0 39 0;
#X connect 39 0 38 0;
#X connect 40 0 42 0;
#X connect 42 0 41 0;
